<svg width="93" height="32" viewBox="0 0 93 32" fill="none" xmlns="http://www.w3.org/2000/svg">
    <path
        d="M5.56902 28.2366C4.61063 28.2366 3.78391 28.0251 3.08886 27.602C2.39813 27.1746 1.86497 26.5789 1.48939 25.8148C1.11812 25.0463 0.932487 24.1527 0.932487 23.1339C0.932487 22.115 1.11812 21.2171 1.48939 20.44C1.86497 19.6586 2.38734 19.0499 3.05648 18.6139C3.72995 18.1736 4.51565 17.9534 5.4136 17.9534C5.93165 17.9534 6.44322 18.0397 6.94832 18.2124C7.45342 18.3851 7.91318 18.6657 8.32762 19.0542C8.74206 19.4385 9.07232 19.9479 9.31839 20.5825C9.56446 21.2171 9.6875 21.9985 9.6875 22.9266V23.5742H2.02039V22.2532H8.13336C8.13336 21.692 8.02111 21.1912 7.79662 20.7508C7.57645 20.3105 7.26131 19.963 6.85119 19.7083C6.44538 19.4536 5.96619 19.3262 5.4136 19.3262C4.8049 19.3262 4.27821 19.4773 3.83356 19.7795C3.39322 20.0774 3.05433 20.4659 2.81689 20.9451C2.57945 21.4243 2.46073 21.938 2.46073 22.4863V23.367C2.46073 24.1182 2.59024 24.7549 2.84926 25.2773C3.11261 25.7953 3.4774 26.1903 3.94364 26.4623C4.40988 26.73 4.95168 26.8638 5.56902 26.8638C5.9705 26.8638 6.33314 26.8077 6.65692 26.6954C6.98502 26.5789 7.26778 26.4062 7.50522 26.1774C7.74266 25.9443 7.92614 25.655 8.05565 25.3097L9.53209 25.7241C9.37667 26.2249 9.11549 26.6652 8.74854 27.0451C8.38159 27.4207 7.92829 27.7143 7.38866 27.9258C6.84903 28.133 6.24248 28.2366 5.56902 28.2366ZM14.9392 28.2625C14.3089 28.2625 13.7369 28.1438 13.2232 27.9064C12.7094 27.6646 12.3015 27.3171 11.9993 26.8638C11.6971 26.4062 11.546 25.8536 11.546 25.2061C11.546 24.6362 11.6582 24.1743 11.8827 23.8203C12.1072 23.462 12.4073 23.1814 12.7828 22.9784C13.1584 22.7755 13.5729 22.6245 14.0262 22.5252C14.4838 22.4215 14.9435 22.3395 15.4055 22.2791C16.0098 22.2014 16.4998 22.1431 16.8754 22.1042C17.2553 22.0611 17.5316 21.9898 17.7043 21.8905C17.8813 21.7913 17.9698 21.6186 17.9698 21.3725V21.3207C17.9698 20.6818 17.795 20.1853 17.4453 19.8313C17.0999 19.4773 16.5754 19.3003 15.8717 19.3003C15.1421 19.3003 14.5701 19.46 14.1557 19.7795C13.7412 20.099 13.4498 20.44 13.2815 20.8026L11.8309 20.2846C12.0899 19.6802 12.4353 19.2097 12.867 18.8729C13.303 18.5319 13.7779 18.2944 14.2917 18.1606C14.8097 18.0225 15.3191 17.9534 15.8199 17.9534C16.1394 17.9534 16.5063 17.9922 16.9207 18.0699C17.3395 18.1433 17.7431 18.2966 18.1317 18.5297C18.5245 18.7628 18.8505 19.1147 19.1095 19.5852C19.3685 20.0558 19.498 20.6861 19.498 21.4761V28.0294H17.9698V26.6825H17.8921C17.7885 26.8983 17.6158 27.1293 17.374 27.3754C17.1323 27.6215 16.8107 27.8308 16.4092 28.0035C16.0077 28.1762 15.5177 28.2625 14.9392 28.2625ZM15.1723 26.8897C15.7767 26.8897 16.2861 26.771 16.7006 26.5336C17.1193 26.2961 17.4345 25.9896 17.646 25.614C17.8619 25.2384 17.9698 24.8434 17.9698 24.429V23.0303C17.905 23.108 17.7626 23.1792 17.5424 23.2439C17.3265 23.3044 17.0762 23.3584 16.7912 23.4058C16.5106 23.449 16.2365 23.4879 15.9688 23.5224C15.7055 23.5526 15.4918 23.5785 15.3277 23.6001C14.9306 23.6519 14.5593 23.7361 14.2139 23.8527C13.8729 23.9649 13.5966 24.1354 13.3851 24.3642C13.1778 24.5887 13.0742 24.8952 13.0742 25.2838C13.0742 25.8148 13.2707 26.2163 13.6635 26.4882C14.0607 26.7559 14.5636 26.8897 15.1723 26.8897ZM29.3329 20.3105L27.96 20.699C27.8737 20.4702 27.7463 20.2479 27.578 20.0321C27.4139 19.8119 27.1894 19.6306 26.9045 19.4881C26.6196 19.3456 26.2548 19.2744 25.8101 19.2744C25.2014 19.2744 24.6942 19.4147 24.2884 19.6953C23.8869 19.9716 23.6861 20.3235 23.6861 20.7508C23.6861 21.1307 23.8243 21.4308 24.1006 21.651C24.3769 21.8711 24.8086 22.0546 25.3957 22.2014L26.8721 22.564C27.7614 22.7799 28.4241 23.1101 28.8601 23.5548C29.2962 23.9951 29.5142 24.5628 29.5142 25.2579C29.5142 25.8277 29.3501 26.3371 29.022 26.7861C28.6982 27.2351 28.245 27.5891 27.6621 27.8481C27.0793 28.1071 26.4016 28.2366 25.6288 28.2366C24.6143 28.2366 23.7746 28.0165 23.1098 27.5761C22.445 27.1358 22.0241 26.4925 21.8471 25.6464L23.2976 25.2838C23.4357 25.8191 23.6969 26.2206 24.0811 26.4882C24.4697 26.7559 24.9769 26.8897 25.6029 26.8897C26.3152 26.8897 26.8808 26.7386 27.2995 26.4364C27.7226 26.1299 27.9341 25.763 27.9341 25.3356C27.9341 24.9902 27.8132 24.701 27.5715 24.4678C27.3297 24.2304 26.9585 24.0534 26.4577 23.9368L24.7999 23.5483C23.889 23.3324 23.2199 22.9979 22.7925 22.5446C22.3694 22.087 22.1579 21.515 22.1579 20.8286C22.1579 20.2673 22.3155 19.7709 22.6306 19.3392C22.9501 18.9075 23.3839 18.5686 23.9322 18.3225C24.4848 18.0764 25.1108 17.9534 25.8101 17.9534C26.7944 17.9534 27.5672 18.1692 28.1284 18.6009C28.6939 19.0327 29.0954 19.6025 29.3329 20.3105ZM32.7989 31.7594C32.5399 31.7594 32.3089 31.7378 32.106 31.6946C31.9031 31.6558 31.7628 31.6169 31.6851 31.578L32.0737 30.2311C32.4449 30.3261 32.773 30.3606 33.0579 30.3347C33.3429 30.3088 33.5954 30.1815 33.8156 29.9527C34.0401 29.7282 34.2451 29.3634 34.4308 28.8583L34.7157 28.0812L31.0376 18.0829H32.6953L35.441 26.009H35.5446L38.2902 18.0829H39.948L35.7259 29.48C35.5359 29.9937 35.3007 30.4189 35.02 30.7556C34.7394 31.0967 34.4135 31.3492 34.0422 31.5133C33.6753 31.6773 33.2608 31.7594 32.7989 31.7594Z"
        fill="#020617" />
    <path
        d="M40.1384 6.78075H45.6712L51.5148 21.0374H51.7634L57.607 6.78075H63.1398V28H58.7882V14.1888H58.612L53.1207 27.8964H50.1575L44.6662 14.137H44.49V28H40.1384V6.78075ZM69.3175 28.2331C68.6872 28.2331 68.1152 28.1144 67.6015 27.877C67.0877 27.6352 66.6798 27.2877 66.3776 26.8344C66.0754 26.3768 65.9243 25.8242 65.9243 25.1766C65.9243 24.6068 66.0365 24.1449 66.261 23.7909C66.4855 23.4325 66.7855 23.1519 67.1611 22.949C67.5367 22.7461 67.9511 22.595 68.4044 22.4957C68.862 22.3921 69.3218 22.3101 69.7837 22.2497C70.3881 22.172 70.8781 22.1137 71.2537 22.0748C71.6336 22.0317 71.9099 21.9604 72.0826 21.8611C72.2596 21.7618 72.3481 21.5892 72.3481 21.3431V21.2913C72.3481 20.6524 72.1732 20.1559 71.8236 19.8019C71.4782 19.4479 70.9537 19.2709 70.25 19.2709C69.5204 19.2709 68.9484 19.4306 68.534 19.7501C68.1195 20.0695 67.8281 20.4106 67.6597 20.7732L66.2092 20.2552C66.4682 19.6508 66.8136 19.1802 67.2453 18.8435C67.6813 18.5025 68.1562 18.265 68.6699 18.1312C69.188 17.993 69.6974 17.924 70.1982 17.924C70.5176 17.924 70.8846 17.9628 71.299 18.0405C71.7178 18.1139 72.1214 18.2672 72.51 18.5003C72.9028 18.7334 73.2288 19.0853 73.4878 19.5558C73.7468 20.0264 73.8763 20.6567 73.8763 21.4467V28H72.3481V26.6531H72.2704C72.1668 26.8689 71.9941 27.0999 71.7523 27.346C71.5106 27.592 71.1889 27.8014 70.7875 27.9741C70.386 28.1468 69.896 28.2331 69.3175 28.2331ZM69.5506 26.8603C70.155 26.8603 70.6644 26.7416 71.0789 26.5041C71.4976 26.2667 71.8128 25.9602 72.0243 25.5846C72.2402 25.209 72.3481 24.814 72.3481 24.3996V23.0008C72.2833 23.0785 72.1409 23.1498 71.9207 23.2145C71.7048 23.275 71.4544 23.3289 71.1695 23.3764C70.8889 23.4196 70.6148 23.4584 70.3471 23.493C70.0838 23.5232 69.8701 23.5491 69.706 23.5707C69.3089 23.6225 68.9376 23.7067 68.5922 23.8232C68.2512 23.9355 67.9749 24.106 67.7634 24.3348C67.5561 24.5593 67.4525 24.8658 67.4525 25.2543C67.4525 25.7853 67.649 26.1868 68.0418 26.4588C68.439 26.7265 68.9419 26.8603 69.5506 26.8603ZM80.9914 18.0535V19.3486H75.8368V18.0535H80.9914ZM77.3392 15.6705H78.8674V25.1507C78.8674 25.5824 78.93 25.9062 79.0552 26.1221C79.1847 26.3336 79.3487 26.4761 79.5473 26.5495C79.7502 26.6185 79.9639 26.6531 80.1884 26.6531C80.3568 26.6531 80.4949 26.6444 80.6029 26.6272C80.7108 26.6056 80.7971 26.5883 80.8619 26.5754L81.1727 27.9482C81.0691 27.987 80.9245 28.0259 80.7388 28.0648C80.5532 28.1079 80.3179 28.1295 80.033 28.1295C79.6013 28.1295 79.1782 28.0367 78.7638 27.8511C78.3537 27.6654 78.0126 27.3827 77.7406 27.0028C77.473 26.6229 77.3392 26.1437 77.3392 25.5652V15.6705ZM85.0322 22.0165V28H83.5039V14.738H85.0322V19.6076H85.1617C85.3948 19.0939 85.7445 18.6859 86.2107 18.3837C86.6813 18.0772 87.3073 17.924 88.0886 17.924C88.7664 17.924 89.36 18.06 89.8694 18.3319C90.3789 18.5996 90.7739 19.0119 91.0545 19.5688C91.3394 20.1214 91.4819 20.825 91.4819 21.6798V28H89.9536V21.7834C89.9536 20.9934 89.7486 20.3825 89.3384 19.9508C88.9326 19.5148 88.3693 19.2968 87.6483 19.2968C87.1475 19.2968 86.6986 19.4026 86.3014 19.6141C85.9085 19.8256 85.5977 20.1343 85.3689 20.5401C85.1444 20.9459 85.0322 21.4381 85.0322 22.0165Z"
        fill="#020617" />
</svg>